Coordinates
version=1
nRows=19
nColumns=36
inDegrees=yes

Units are S.I. units (second, meters, Newtons, ...)
If the header above contains a line with 'inDegrees', this indicates whether rotational values are in degrees (yes) or radians (no).

endheader
time	pelvis_tilt	pelvis_list	pelvis_rotation	pelvis_tx	pelvis_ty	pelvis_tz	hip_flexion_r	hip_adduction_r	hip_rotation_r	knee_angle_r	knee_angle_r_beta	ankle_angle_r	subtalar_angle_r	mtp_angle_r	hip_flexion_l	hip_adduction_l	hip_rotation_l	knee_angle_l	knee_angle_l_beta	ankle_angle_l	subtalar_angle_l	mtp_angle_l	lumbar_extension	lumbar_bending	lumbar_rotation	arm_flex_r	arm_add_r	arm_rot_r	elbow_flex_r	pro_sup_r	arm_flex_l	arm_add_l	arm_rot_l	elbow_flex_l	pro_sup_l
      7.20000000	     -9.33803539	      6.93636917	      7.98222741	      0.34645979	      0.88041356	     -0.06749527	     39.86595294	      1.16206552	      5.83475890	     58.58292039	      1.02246485	     29.16842753	    -26.56073914	     -7.49999987	     61.19462936	      3.84445173	      4.98846933	     35.01390689	      0.61110796	    -13.00254352	    -14.78325567	     -7.49999987	    -29.84855884	     -1.84800203	     -3.58556477	     57.92695554	      0.18351946	     68.79298641	    121.00078838	     85.68107288	     62.89314224	      3.82569674	     80.64441557	    121.71671763	     69.15190918
      7.21666670	     -9.54970249	      7.05173696	      8.10805423	      0.34563587	      0.87383046	     -0.06762022	     40.65391865	      1.14881927	      5.72004619	     59.88698914	      1.04522514	     29.90627957	    -26.47294255	     -7.49999987	     61.95086825	      3.89945797	      4.99483832	     35.04877473	      0.61171652	    -14.92531200	    -16.35950275	     -7.49999987	    -30.25494774	     -2.01666002	     -3.71057620	     59.13218502	      0.29706049	     69.42860225	    120.48431602	     85.50532243	     63.34059653	      3.75739776	     81.07547560	    121.97034830	     69.66702752
      7.23333330	     -9.70847838	      7.21500742	      8.28144774	      0.34407424	      0.86375325	     -0.06726415	     41.91490607	      1.10553624	      5.81754518	     61.85537453	      1.07957995	     30.50998203	    -26.55405551	     -7.49999987	     62.61897119	      3.99493054	      4.70578181	     35.14814956	      0.61345094	    -15.79438195	    -16.70490626	     -7.49999987	    -30.72873563	     -2.22187058	     -3.78885453	     60.49860921	      0.41805428	     69.38345233	    120.24453704	     84.80472665	     64.08725397	      3.61265487	     81.52647161	    122.29576739	     70.01162871
      7.25000000	     -9.78555889	      7.27203237	      8.43863330	      0.34223615	      0.85646533	     -0.06793787	     43.17014630	      1.09817580	      5.92079818	     63.82984745	      1.11404100	     30.71630470	    -26.91369329	     -7.49999987	     63.39144500	      4.28004978	      5.02808700	     35.16146278	      0.61368330	    -16.45790639	    -16.36573110	     -7.49999987	    -31.30007167	     -2.24653717	     -3.89851693	     61.73436119	      0.40484130	     68.94729621	    120.22433832	     84.88193636	     64.99665053	      3.79609953	     81.57781487	    122.44975331	     70.16950849
      7.26666670	     -9.88583042	      7.30230228	      8.46924322	      0.34474048	      0.85079915	     -0.06539772	     44.02382849	      1.42974138	      6.10788485	     65.44210764	      1.14218025	     31.89820423	    -26.80801760	     -7.49999987	     63.89036607	      4.14749224	      5.00367765	     34.51345985	      0.60237351	    -17.40421101	    -16.80357941	     -7.49999987	    -31.60702372	     -2.46300035	     -3.71876596	     62.41017182	      0.10177191	     69.04837653	    120.02201222	     85.02465014	     65.48645050	      3.83126075	     82.41230792	    122.62488926	     70.52761989
      7.28333330	     -9.96616384	      7.23658130	      8.61396612	      0.34371303	      0.84447005	     -0.06560530	     45.13566052	      1.80266770	      6.25319597	     67.32584753	      1.17505771	     32.53306450	    -27.23795339	     -7.49999987	     64.59394110	      3.89792934	      4.71709245	     34.40184455	      0.60042546	    -17.49983464	    -17.23665515	     -7.49999987	    -31.93588116	     -2.30649993	     -3.35095936	     62.83228750	     -0.41158955	     68.79032030	    119.95027339	     84.38216358	     66.12988798	      3.99832820	     82.40018791	    122.62658851	     70.42395284
      7.30000000	     -9.78957276	      7.06692485	      8.71775630	      0.34351569	      0.84311644	     -0.06494789	     45.45808978	      2.29803237	      6.40561275	     68.16929932	      1.18977872	     32.53558371	    -27.81566870	     -7.49999987	     64.17209785	      3.61421425	      4.65406170	     32.94480277	      0.57499528	    -17.48217993	    -17.89590730	     -7.49999987	    -32.79559285	     -2.16707008	     -3.08255671	     63.17655550	     -0.96705873	     67.93800355	    120.24970673	     86.17397860	     66.59222280	      3.91464582	     82.03527482	    122.18861909	     73.07221729
      7.31666670	     -9.90945240	      6.91059185	      8.52212064	      0.34352317	      0.83409282	     -0.06485031	     46.38984178	      2.85351794	      6.54660378	     69.46725933	      1.21243240	     33.10392634	    -27.94580673	     -7.49999987	     64.44624379	      3.16585251	      4.43601859	     32.78060441	      0.57212948	    -16.14476538	    -18.01128022	     -7.49999987	    -33.31445112	     -2.09751709	     -3.02467525	     63.27310820	     -1.01533241	     68.01478044	    120.20872155	     84.94144805	     66.77656098	      3.89907483	     81.48646034	    122.07698698	     72.75556573
      7.33333330	    -10.21907992	      6.79677718	      8.85060617	      0.34751047	      0.83024432	     -0.06237864	     47.17542025	      3.17826975	      6.55821090	     70.47478779	      1.23001709	     32.90642425	    -28.60672548	     -7.49999987	     64.68614297	      2.94508961	      4.23680300	     32.64425911	      0.56974980	    -14.75748590	    -17.11483606	     -7.49999987	    -33.75288434	     -2.15573188	     -3.21286383	     62.45688674	     -1.07030743	     67.87623469	    120.72271543	     85.27324020	     66.53304319	      3.88098827	     81.56447285	    121.76629003	     72.97519842
      7.35000000	    -10.28827859	      6.63467591	      8.76692768	      0.34612735	      0.82451088	     -0.06344817	     47.81961550	      3.69864286	      6.66445821	     71.44670197	      1.24698019	     32.48405170	    -29.08653581	     -7.49999987	     64.86166741	      2.59580848	      4.21901988	     32.50043286	      0.56723956	    -13.58886643	    -16.18179196	     -7.49999987	    -34.37423765	     -2.22050429	     -2.89040849	     62.47331192	     -1.50734356	     67.81029182	    121.30156196	     84.73264657	     66.78702322	      3.97137611	     80.91477111	    120.91698297	     72.82691312
      7.36666670	    -10.45602116	      6.59570334	      8.64158805	      0.34122003	      0.81961020	     -0.06540023	     49.08273168	      3.81415847	      6.71213522	     72.90107797	      1.27236384	     32.48265769	    -29.03734888	     -7.49999987	     65.60874709	      2.38460942	      4.13814670	     32.82192665	      0.57285069	    -13.25198849	    -15.83219283	     -7.49999987	    -35.06130499	     -2.20519628	     -2.92632381	     63.12222990	     -1.61347574	     67.90708538	    121.52930441	     84.13062687	     66.94077643	      3.91732025	     80.16908334	    120.53939893	     72.54937830
      7.38333330	    -10.41784537	      6.28805440	      8.36059853	      0.34129277	      0.81398856	     -0.06149530	     49.90471946	      4.51888292	      6.64247487	     74.09205168	      1.29315025	     32.76702100	    -29.42853437	     -7.49999987	     65.53219292	      1.79522129	      4.67238586	     32.21224251	      0.56220969	    -13.18252173	    -15.29551322	     -7.49999987	    -35.77223409	     -2.05595564	     -2.70586082	     63.44703687	     -1.49688212	     68.14546435	    121.40830680	     84.32895610	     67.27208376	      3.88092269	     79.58225300	    120.13281336	     72.64702044
      7.40000000	    -10.44550604	      6.10401522	      8.16986679	      0.34619413	      0.81474080	     -0.05858625	     50.04769871	      5.12778615	      6.59036795	     74.37316467	      1.29805660	     32.56740134	    -29.58450779	     -7.49999987	     65.24399500	      1.33204244	      5.06113545	     31.68479135	      0.55300393	    -13.15594492	    -15.20466621	     -7.49999987	    -36.48216986	     -1.96105321	     -2.49751149	     63.20411616	     -1.37959530	     68.24267132	    121.41189130	     84.51216731	     67.33880149	      3.82633374	     79.40899552	    120.01333939	     72.76733934
      7.41666670	    -10.49382702	      6.05477018	      8.13555506	      0.34602576	      0.80958289	     -0.05900932	     50.25102000	      5.36073261	      6.44137755	     74.82922535	      1.30601636	     32.50510323	    -29.49433912	     -7.49999987	     65.46843344	      1.08304337	      5.22820497	     31.57994478	      0.55117401	    -13.17787210	    -15.13910626	     -7.49999987	    -37.06176385	     -1.89714828	     -2.51701318	     63.13510981	     -1.19579190	     68.22208794	    121.43602794	     84.54739432	     67.49443014	      3.84223729	     79.38811557	    119.92401795	     72.79268004
      7.43333330	    -10.51033253	      5.88224879	      7.84434737	      0.33831346	      0.80777126	     -0.05840277	     50.99324170	      5.79839566	      6.45204135	     75.43788517	      1.31663948	     32.22337285	    -29.39430289	     -7.49999987	     65.80421420	      0.57736735	      5.23210450	     30.95557363	      0.54027668	    -13.56694209	    -15.06544176	     -7.49999987	    -37.85584043	     -1.76448812	     -2.36110821	     63.86080795	     -0.88277016	     67.98236018	    121.44533337	     84.63290954	     68.37728079	      3.93354101	     79.11467005	    119.88552903	     72.84877272
      7.45000000	    -10.27959391	      6.04498943	      7.92865567	      0.34701144	      0.80699335	     -0.05809965	     50.88603201	      5.74119117	      6.46484042	     75.95489229	      1.32566295	     32.39882642	    -29.43586184	     -7.49999987	     65.75624560	      0.57767831	      5.02657733	     30.72611372	      0.53627185	    -14.17961044	    -15.51693436	     -7.49999987	    -39.02915943	     -1.82314842	     -2.77267747	     64.24185217	     -1.00016273	     68.40734675	    121.28758366	     85.03682712	     69.27244518	      3.93518523	     79.61453534	    119.99362402	     73.11799019
      7.46666670	    -10.32906618	      6.15184201	      8.10918975	      0.34623017	      0.79821383	     -0.05314057	     51.38102062	      5.76812717	      6.22595996	     76.85600709	      1.34139037	     32.95041829	    -29.60938756	     -7.49999987	     66.24978875	      0.40183109	      4.53890679	     30.98783155	      0.54083969	    -14.88153647	    -15.78507705	     -7.49999987	    -39.61498445	     -2.00232994	     -2.96016464	     64.50657685	     -0.78010050	     68.46754320	    121.10043742	     84.65163149	     69.99450432	      4.01624608	     80.30056000	    120.47174247	     73.13467816
      7.48333330	    -10.80113696	      6.25877099	      8.47008897	      0.34464593	      0.79040229	     -0.05392932	     52.72953438	      5.57939276	      6.10442042	     78.18851835	      1.36464708	     33.64780689	    -29.25947739	     -7.49999987	     67.71799035	      0.60944141	      4.11748571	     32.04073815	      0.55921638	    -15.75949627	    -15.84441590	     -7.49999987	    -39.69091175	     -2.13369159	     -3.33728022	     64.93831128	     -0.76910309	     67.72533245	    121.26399500	     89.10453633	     70.71027131	      4.03933949	     80.54793043	    120.79540825	     75.76395173
      7.50000000	    -11.04869113	      6.35330410	      8.51686031	      0.34726541	      0.78432902	     -0.05174009	     53.85166927	      5.53878903	      5.83294430	     79.82379081	      1.39318797	     34.74559837	    -28.68870515	     -7.49999987	     68.67928150	      0.56847186	      3.89640769	     32.58348400	      0.56868908	    -16.26247922	    -15.14002641	     -7.49999987	    -39.74271753	     -2.48605805	     -3.63682300	     65.09498193	     -0.53132199	     67.19993708	    121.42267593	     89.14975451	     70.90925790	      3.91942670	     80.93244642	    121.29658806	     75.90068196
